<svg width="437" height="362" viewBox="0 0 437 362" fill="none" xmlns="http://www.w3.org/2000/svg">
<path d="M197.272 362C196.812 362 196.352 362 196.352 361.542L0.919685 249.297C0.459844 248.839 0 248.381 0 247.464C0 246.548 0.459844 246.09 0.919685 245.632L196.352 133.387C196.812 132.928 197.731 132.928 198.651 133.387L394.083 245.632C394.543 246.09 395.003 246.548 395.003 247.464C395.003 248.381 394.543 248.839 394.083 249.297L198.651 361.542C198.191 362 197.731 362 197.272 362ZM6.43777 247.464L197.731 357.419L389.025 247.464L197.731 137.51L6.43777 247.464Z" fill="#47C2CE"/>
<path d="M196.986 319.715L71.1626 247.522L196.986 175.328L322.809 247.522L196.986 319.715Z" fill="url(#paint0_linear_12102_23953)"/>
<path d="M115.434 309.406L110.1 282.19L83.7815 272.994L62.7572 291.191L68.0909 318.407L94.4095 327.603L115.434 309.406Z" fill="#5671FE"/>
<path d="M89.1152 300.21L62.7572 291.191L83.7815 272.994L110.1 282.19L89.1152 300.21Z" fill="#7296FF"/>
<path d="M115.434 309.406L94.4098 327.603L89.1154 300.21L110.1 282.19L115.434 309.406Z" fill="#799AFC"/>
<path d="M94.4097 327.603L68.091 318.407L62.7573 291.192L89.1153 300.21L94.4097 327.603Z" fill="#5671FE"/>
<mask id="mask0_12102_23953" style="mask-type:alpha" maskUnits="userSpaceOnUse" x="325" y="39" width="53" height="159">
<path d="M370.131 40.5672L358.978 47.4108L359.117 42.1779C359.208 39.4652 357.38 38.5009 355.062 39.8783C352.712 41.3102 350.752 44.6369 350.66 47.3497L347.72 138.231C335.685 147.849 326.18 165.378 325.695 179.8C325.17 195.8 336.135 201.946 350.068 193.405C364.002 184.864 375.761 164.904 376.318 148.849C376.771 134.482 368.022 128.064 356.176 133.06L358.165 71.1058L374.301 61.2675C376.253 60.0463 377.892 57.265 377.964 55.0504C378.036 52.8358 376.497 51.9625 374.545 53.1836L358.409 63.022L358.651 55.52L369.805 48.6764C371.757 47.4552 373.395 44.6739 373.468 42.4593C373.623 40.2193 372.083 39.346 370.131 40.5672ZM367.862 154.021C367.54 164.679 359.7 177.986 350.415 183.634C341.131 189.282 333.862 185.232 334.184 174.573C334.506 163.915 342.346 150.608 351.63 144.96C360.947 139.258 368.184 143.362 367.862 154.021Z" fill="#FFCA1F"/>
</mask>
<g mask="url(#mask0_12102_23953)">
<path d="M369.98 40.5934L358.826 47.414L358.953 42.1808C359.039 39.4679 357.206 38.4996 354.888 39.8722C352.538 41.2993 350.582 44.6221 350.497 47.335L347.754 138.22C335.724 147.814 326.245 165.323 325.791 179.746C325.301 195.747 336.294 201.917 350.228 193.405C364.162 184.893 375.894 164.956 376.416 148.9C376.838 134.532 368.062 128.095 356.211 133.066L358.065 71.1098L374.202 61.305C376.154 60.0878 377.789 57.3097 377.856 55.095C377.923 52.8803 376.38 52.0036 374.427 53.2208L358.291 63.0256L358.517 55.5233L369.671 48.7029C371.623 47.4857 373.258 44.7076 373.325 42.4929C373.476 40.253 371.932 39.3763 369.98 40.5934ZM367.959 154.055C367.661 164.714 359.839 178.005 350.554 183.634C341.269 189.262 333.981 185.196 334.28 174.537C334.579 163.878 342.4 150.587 351.685 144.958C361.002 139.275 368.258 143.396 367.959 154.055Z" fill="#00C6DA"/>
<path d="M337.171 44.311L330.888 54.9564L339.11 59.6109L345.394 48.9656L337.171 44.311Z" fill="#00C6DA"/>
<path d="M335.969 31.8087L336.022 31.8387C336.148 31.9853 336.24 32.1882 336.332 32.3911C336.385 32.4211 336.352 32.4776 336.405 32.5076C336.497 32.7105 336.557 32.9697 336.563 33.1989C336.602 33.3717 336.589 33.5145 336.595 33.7437C336.582 33.8865 336.622 34.0593 336.608 34.2021L336.464 39.6084L350.334 47.5714L350.478 42.165C350.478 42.165 350.511 42.1087 350.458 42.0786C350.472 41.9358 350.452 41.8494 350.412 41.6766C350.373 41.5038 350.419 41.3046 350.38 41.1318C350.38 41.1318 350.38 41.1318 350.413 41.0755C350.373 40.9026 350.334 40.7298 350.294 40.557C350.242 40.5269 350.275 40.4706 350.222 40.4405C350.169 40.4105 350.202 40.3541 350.149 40.3241C350.129 40.2376 350.077 40.2075 350.057 40.1211C349.984 40.0046 349.912 39.8882 349.892 39.8018L349.839 39.7717L349.786 39.7417C349.733 39.7116 349.714 39.6251 349.608 39.565C349.502 39.5049 349.429 39.3884 349.324 39.3283L349.271 39.2982L335.401 31.3353C335.632 31.5419 335.844 31.6621 335.969 31.8087Z" fill="#00C6DA"/>
<path d="M351.029 32.9247C351.029 32.9247 351.081 32.9542 351.029 32.9247C351.152 33.0683 351.276 33.212 351.315 33.3814L351.334 33.4661C351.373 33.6355 351.464 33.8343 351.503 34.0037C351.49 34.1436 351.529 34.313 351.516 34.4529C351.503 34.5929 351.522 34.6776 351.561 34.847C351.554 35.2115 351.495 35.5466 351.404 35.9369C351.391 36.0769 351.325 36.1874 351.312 36.3273C351.266 36.5225 351.201 36.6329 351.155 36.8281C351.11 37.0232 350.979 37.2442 350.933 37.4393C350.901 37.4946 350.868 37.5498 350.868 37.5498C350.738 37.7708 350.627 38.0763 350.464 38.3525C350.431 38.4077 350.431 38.4078 350.398 38.463C350.268 38.6839 350.105 38.96 349.922 39.1515C349.89 39.2067 349.89 39.2068 349.857 39.262C349.675 39.4535 349.511 39.7296 349.329 39.9211C349.296 39.9763 349.264 40.0316 349.212 40.0021C349.029 40.1936 348.847 40.385 348.697 40.5213C348.664 40.5765 348.664 40.5764 348.579 40.6022C348.345 40.7642 348.11 40.9263 347.875 41.0883L336.557 48.0208L350.219 55.8256L361.538 48.893C361.773 48.731 361.975 48.6242 362.242 48.407C362.242 48.407 362.242 48.407 362.274 48.3517C362.307 48.2965 362.307 48.2965 362.392 48.2708C362.509 48.1898 362.659 48.0536 362.724 47.9431C362.757 47.8879 362.874 47.8068 362.907 47.7516C362.939 47.6964 362.972 47.6411 363.024 47.6706C363.057 47.6153 363.057 47.6154 363.089 47.5601C363.239 47.4239 363.304 47.3134 363.402 47.1477C363.435 47.0925 363.468 47.0373 363.5 46.9821C363.533 46.9268 363.533 46.9268 363.565 46.8716C363.598 46.8163 363.631 46.7611 363.663 46.7059C363.761 46.5402 363.826 46.4297 363.924 46.264C363.957 46.2088 363.989 46.1536 364.022 46.0984C364.055 46.0431 364.055 46.0431 364.087 45.9879C364.12 45.9326 364.152 45.8774 364.218 45.7669C364.316 45.6012 364.413 45.4356 364.459 45.2404L364.492 45.1851C364.524 45.1299 364.557 45.0747 364.557 45.0747C364.622 44.9642 364.668 44.7691 364.733 44.6586C364.766 44.6034 364.746 44.5187 364.779 44.4634C364.825 44.2683 364.89 44.1578 364.936 43.9626C364.968 43.9074 364.982 43.7675 365.014 43.7123C365.047 43.657 364.995 43.6275 365.027 43.5723C365.119 43.182 365.178 42.8469 365.185 42.4823C365.185 42.4823 365.217 42.4271 365.165 42.3977C365.178 42.2577 365.159 42.173 365.139 42.0883C365.153 41.9484 365.114 41.779 365.127 41.6391C365.127 41.6391 365.127 41.6391 365.159 41.5838C365.121 41.4145 365.082 41.2451 365.062 41.1604L365.043 41.0756L365.023 40.9909C364.971 40.9615 365.004 40.9062 364.952 40.8768C364.88 40.7626 364.861 40.6779 364.757 40.619C364.757 40.619 364.757 40.619 364.704 40.5895L364.652 40.5601C364.6 40.5306 364.581 40.4458 364.529 40.4164C364.425 40.3575 364.373 40.328 364.301 40.2138C364.301 40.2138 364.301 40.2138 364.249 40.1844L350.586 32.3796C350.834 32.6669 350.905 32.7811 351.029 32.9247Z" fill="#00C6DA"/>
<path d="M355.677 45.2863C355.833 45.3745 355.956 45.5179 356.06 45.5767L356.112 45.6061C356.235 45.7495 356.307 45.8635 356.346 46.0326L356.365 46.1171C356.404 46.2862 356.495 46.4847 356.533 46.6538C356.52 46.7935 356.559 46.9625 356.546 47.1022C356.533 47.2419 356.552 47.3265 356.591 47.4955C356.584 47.8594 356.526 48.1939 356.434 48.5835C356.421 48.7232 356.356 48.8334 356.343 48.9731C356.297 49.1679 356.232 49.2782 356.186 49.473C356.141 49.6678 356.01 49.8884 355.965 50.0832C355.932 50.1383 355.9 50.1934 355.9 50.1934C355.769 50.4139 355.659 50.719 355.496 50.9947C355.463 51.0498 355.463 51.0498 355.431 51.1049C355.3 51.3254 355.138 51.6011 354.955 51.7922C354.923 51.8474 354.923 51.8473 354.89 51.9025C354.708 52.0936 354.545 52.3693 354.363 52.5604C354.331 52.6155 354.298 52.6706 354.246 52.6412C354.064 52.8323 353.882 53.0235 353.732 53.1595C353.699 53.2146 353.699 53.2146 353.615 53.2403C353.381 53.402 353.147 53.5637 352.912 53.7254L336.566 63.6735L350.204 71.4641L366.55 61.516C366.784 61.3543 367.019 61.1926 367.253 61.0309C367.253 61.0309 367.253 61.0309 367.285 60.9757C367.318 60.9206 367.318 60.9206 367.402 60.8949C367.52 60.8141 367.669 60.678 367.734 60.5678C367.767 60.5126 367.884 60.4318 367.917 60.3766C367.949 60.3215 367.982 60.2664 368.034 60.2958C368.066 60.2407 368.066 60.2407 368.151 60.215C368.3 60.079 368.366 59.9687 368.463 59.8033C368.496 59.7482 368.528 59.693 368.561 59.6379C368.593 59.5828 368.593 59.5828 368.626 59.5277C368.659 59.4725 368.691 59.4174 368.724 59.3622C368.821 59.1968 368.886 59.0866 368.984 58.9212C369.017 58.8661 369.049 58.8109 369.049 58.8109C369.082 58.7558 369.082 58.7558 369.114 58.7007C369.147 58.6456 369.179 58.5904 369.245 58.4801C369.342 58.3147 369.44 58.1493 369.486 57.9545L369.518 57.8994C369.551 57.8443 369.583 57.7892 369.583 57.7892C369.648 57.6789 369.694 57.4841 369.759 57.3738C369.792 57.3187 369.772 57.2342 369.805 57.179C369.851 56.9842 369.916 56.8739 369.961 56.6791C369.994 56.624 370.007 56.4843 370.04 56.4292C370.072 56.3741 370.02 56.3447 370.053 56.2895C370.144 55.8999 370.203 55.5655 370.21 55.2016C370.21 55.2016 370.242 55.1464 370.19 55.117C370.203 54.9773 370.184 54.8928 370.165 54.8083C370.178 54.6686 370.139 54.4995 370.152 54.3598C370.152 54.3598 370.152 54.3598 370.185 54.3047C370.146 54.1356 370.107 53.9665 370.088 53.8819L370.068 53.7974L370.049 53.7129C369.997 53.6835 370.029 53.6283 369.977 53.5989C369.906 53.485 369.886 53.4004 369.782 53.3416C369.782 53.3416 369.782 53.3416 369.731 53.3122L369.679 53.2827C369.627 53.2533 369.607 53.1688 369.555 53.1394C369.451 53.0806 369.399 53.0512 369.328 52.9372C369.328 52.9372 369.328 52.9372 369.276 52.9078L355.677 45.2863Z" fill="#00C6DA"/>
<path d="M337.917 63.1261L351.503 70.8872L349.497 133.246L335.88 125.54L337.917 63.1261Z" fill="#00C6DA"/>
<path d="M345.067 135.361C342.135 133.7 337.927 134.085 333.298 136.93C332.751 137.276 332.203 137.622 331.624 138.023C331.424 138.128 331.244 138.318 331.096 138.453C330.748 138.693 330.484 138.908 330.137 139.148C330.104 139.203 330.104 139.203 330.021 139.229C329.345 139.793 328.636 140.412 327.979 141.061C327.947 141.115 327.864 141.141 327.831 141.196C327.683 141.33 327.503 141.52 327.406 141.684C327.046 142.063 326.685 142.441 326.324 142.82C326.26 142.93 326.144 143.01 326.028 143.09C325.88 143.225 325.783 143.389 325.603 143.578C325.326 143.931 325.049 144.285 324.753 144.554C324.656 144.718 324.54 144.798 324.443 144.962C324.347 145.126 324.199 145.261 324.102 145.425C323.857 145.724 323.58 146.077 323.387 146.405C323.29 146.569 323.142 146.704 323.046 146.868C322.949 147.032 322.852 147.196 322.756 147.359C322.53 147.742 322.285 148.041 322.06 148.423C321.963 148.587 321.866 148.751 321.686 148.94C321.589 149.104 321.525 149.214 321.428 149.378C321.203 149.76 320.977 150.143 320.752 150.525C320.655 150.689 320.526 150.908 320.429 151.072C320.365 151.181 320.3 151.29 320.236 151.4C319.946 151.891 319.74 152.358 319.501 152.879C319.404 153.043 319.276 153.261 319.23 153.454C319.198 153.509 319.166 153.564 319.134 153.618C318.753 154.496 318.405 155.319 318.025 156.197C317.992 156.252 317.992 156.252 317.96 156.307C317.883 156.554 317.805 156.802 317.728 157.05C317.554 157.462 317.431 157.902 317.308 158.343C317.199 158.646 317.141 158.977 317.031 159.28C316.908 159.72 316.818 160.107 316.695 160.547C316.663 160.602 316.65 160.74 316.618 160.795C316.605 160.934 316.559 161.127 316.546 161.265C316.379 161.899 316.262 162.562 316.146 163.225C316.12 163.502 316.074 163.695 316.048 163.972C315.971 164.803 315.86 165.688 315.815 166.464C315.802 166.602 315.821 166.686 315.808 166.825C315.782 167.102 315.788 167.324 315.846 167.575C315.839 167.936 315.864 168.242 315.858 168.603C315.883 168.909 315.941 169.16 315.915 169.437C315.94 169.743 315.966 170.049 316.042 170.384C316.062 170.468 316.029 170.523 316.081 170.552C316.177 170.971 316.222 171.361 316.35 171.725C316.369 171.809 316.388 171.893 316.408 171.976C316.498 172.173 316.555 172.424 316.645 172.621C316.664 172.705 316.735 172.818 316.754 172.902C316.863 173.182 317.024 173.492 317.133 173.773C317.204 173.885 317.242 174.053 317.313 174.166C317.332 174.25 317.383 174.279 317.435 174.308C317.576 174.534 317.718 174.76 317.859 174.986C317.93 175.099 318.052 175.241 318.122 175.354C318.174 175.383 318.225 175.412 318.193 175.467C318.367 175.638 318.54 175.809 318.714 175.981C318.836 176.123 318.906 176.236 319.061 176.323C319.112 176.352 319.112 176.352 319.164 176.381C319.337 176.553 319.543 176.669 319.749 176.786C319.903 176.873 319.974 176.986 320.128 177.074C320.18 177.103 320.231 177.132 320.282 177.161L333.78 184.883C333.574 184.766 333.452 184.624 333.246 184.508C333.041 184.391 332.867 184.22 332.661 184.103C332.539 183.961 332.366 183.79 332.211 183.702C332.038 183.531 331.864 183.36 331.691 183.189C331.569 183.047 331.479 182.85 331.357 182.708C331.215 182.482 331.042 182.311 330.933 182.03C330.843 181.833 330.721 181.691 330.631 181.494C330.522 181.214 330.361 180.904 330.252 180.624C330.143 180.343 330.034 180.063 329.905 179.698C329.886 179.614 329.867 179.531 329.848 179.447C329.752 179.028 329.604 178.58 329.54 178.106C329.515 177.8 329.489 177.494 329.412 177.159C329.387 176.853 329.329 176.601 329.304 176.295C329.278 175.989 329.285 175.629 329.292 175.268C329.299 174.907 329.273 174.601 329.312 174.186C329.307 173.381 329.417 172.495 329.546 171.694C329.572 171.417 329.617 171.224 329.643 170.947C329.76 170.284 329.876 169.621 330.044 168.987C330.122 168.739 330.115 168.517 330.193 168.269C330.283 167.883 330.406 167.442 330.529 167.001C330.638 166.699 330.696 166.367 330.806 166.065C330.929 165.624 331.103 165.213 331.226 164.772C331.335 164.469 331.445 164.167 331.554 163.865C331.851 163.012 332.232 162.134 332.664 161.285C332.825 161.012 332.902 160.764 333.063 160.491C333.302 159.97 333.56 159.533 333.798 159.012C333.991 158.684 334.153 158.411 334.346 158.083C334.571 157.701 334.797 157.318 335.023 156.936C335.216 156.608 335.409 156.28 335.603 155.952C335.828 155.569 336.073 155.271 336.298 154.888C336.492 154.56 336.736 154.262 336.93 153.934C337.175 153.635 337.4 153.252 337.645 152.954C337.89 152.655 338.102 152.411 338.296 152.083C338.573 151.73 338.85 151.376 339.146 151.107C339.358 150.863 339.603 150.564 339.816 150.32C340.176 149.941 340.537 149.562 340.898 149.183C341.078 148.994 341.291 148.75 341.522 148.59C342.179 147.941 342.888 147.322 343.564 146.757C343.943 146.462 344.24 146.193 344.587 145.952C344.736 145.817 344.967 145.657 345.115 145.522C345.695 145.122 346.191 144.746 346.789 144.43C350.324 142.277 353.509 141.53 356.172 142.019C357.054 142.154 357.838 142.453 358.61 142.89L345.067 135.361Z" fill="#00C6DA"/>
<path d="M353.268 126.367C353.319 126.396 353.421 126.454 353.44 126.537C353.837 126.908 354.234 127.279 354.65 127.733C354.702 127.762 354.772 127.874 354.823 127.903C355.188 128.329 355.521 128.808 355.854 129.288C355.873 129.371 355.975 129.429 355.995 129.513C356.295 130.047 356.596 130.581 356.864 131.17C356.884 131.253 356.954 131.366 356.973 131.449C357.19 132.009 357.408 132.568 357.593 133.182C357.612 133.266 357.683 133.378 357.67 133.517C357.874 134.214 357.995 134.937 358.116 135.66C358.135 135.743 358.122 135.882 358.193 135.994C358.314 136.717 358.403 137.495 358.46 138.326C358.447 138.464 358.466 138.548 358.453 138.686C358.51 139.518 358.503 140.459 358.444 141.371C358.418 142.228 358.327 143.194 358.217 144.077C358.191 144.353 358.146 144.546 358.12 144.822C358.043 145.65 357.882 146.504 357.753 147.303C357.74 147.441 357.708 147.496 357.695 147.634C357.534 148.487 357.341 149.396 357.096 150.275C356.929 150.907 356.762 151.539 356.543 152.142C356.389 152.636 356.267 153.075 356.113 153.57C355.946 154.202 355.695 154.859 355.444 155.517C355.29 156.011 355.085 156.476 354.963 156.915C354.918 157.108 354.789 157.326 354.744 157.518C354.429 158.285 354.115 159.051 353.768 159.872C353.64 160.09 353.562 160.337 353.434 160.555C353.229 161.02 353.004 161.401 352.798 161.866C352.432 162.604 352.067 163.341 351.701 164.079C351.444 164.515 351.206 165.034 350.949 165.47C350.596 166.069 350.276 166.614 349.923 167.214C349.634 167.704 349.345 168.194 349.037 168.601C348.716 169.146 348.344 169.662 348.004 170.123C347.664 170.585 347.375 171.075 347.035 171.536C346.663 172.052 346.323 172.513 345.951 173.029C345.611 173.491 345.303 173.897 344.911 174.33C344.488 174.816 344.084 175.387 343.66 175.874C343.301 176.251 342.993 176.658 342.634 177.036C342.095 177.603 341.556 178.169 341.017 178.736C340.658 179.114 340.331 179.437 339.972 179.815C339.792 180.004 339.613 180.192 339.382 180.352C338.792 180.89 338.202 181.427 337.644 181.911C337.496 182.045 337.317 182.234 337.118 182.339C336.592 182.768 335.983 183.222 335.457 183.65C335.194 183.865 334.931 184.079 334.668 184.293C333.828 184.907 333.02 185.466 332.193 185.942C325.153 190.235 318.95 190.787 314.543 188.287L327.986 195.986C332.393 198.486 338.68 197.91 345.636 193.642C346.495 193.112 347.303 192.552 348.111 191.993C348.374 191.779 348.637 191.564 348.9 191.35C349.394 190.976 349.856 190.656 350.298 190.253C350.414 190.173 350.446 190.119 350.561 190.039C350.709 189.904 350.888 189.715 351.087 189.61C351.645 189.127 352.235 188.589 352.825 188.052C353.005 187.863 353.235 187.703 353.415 187.514C353.563 187.38 353.678 187.3 353.774 187.137C353.986 186.893 354.198 186.65 354.461 186.435C354.999 185.869 355.538 185.302 356.077 184.736C356.224 184.601 356.372 184.467 356.468 184.303C356.68 184.06 356.892 183.817 357.071 183.628C357.495 183.141 357.918 182.654 358.322 182.084C358.502 181.895 358.681 181.706 358.81 181.488C359.022 181.245 359.15 181.027 359.362 180.783C359.734 180.268 360.074 179.806 360.446 179.29C360.606 179.018 360.786 178.829 360.998 178.586C361.126 178.368 361.287 178.095 361.466 177.906C361.838 177.391 362.159 176.846 362.499 176.384C362.66 176.112 362.871 175.869 363.032 175.596C363.16 175.378 363.289 175.16 363.417 174.942C363.77 174.343 364.091 173.798 364.444 173.199C364.604 172.926 364.765 172.654 364.957 172.327C365.054 172.163 365.15 172 365.195 171.807C365.561 171.07 365.927 170.333 366.293 169.595C366.453 169.323 366.562 169.021 366.755 168.694C366.819 168.585 366.864 168.393 366.928 168.284C367.057 168.066 367.134 167.819 367.262 167.601C367.577 166.834 367.975 166.042 368.238 165.247C368.284 165.054 368.412 164.836 368.457 164.644C368.521 164.535 368.553 164.48 368.566 164.342C368.708 163.986 368.798 163.601 368.971 163.191C369.222 162.533 369.44 161.93 369.639 161.244C369.794 160.75 369.916 160.31 370.07 159.816C370.237 159.184 370.456 158.581 370.623 157.949C370.636 157.811 370.7 157.702 370.745 157.509C370.925 156.739 371.073 156.024 371.253 155.253C371.266 155.115 371.298 155.061 371.311 154.923C371.472 154.069 371.601 153.27 371.679 152.442C371.705 152.166 371.75 151.973 371.776 151.697C371.885 150.814 371.944 149.902 372.003 148.99C372.015 148.852 372.009 148.631 372.022 148.493C372.036 147.774 371.998 147.025 371.979 146.36C371.992 146.222 371.973 146.139 371.986 146.001C371.929 145.169 371.891 144.42 371.719 143.668C371.7 143.585 371.713 143.447 371.643 143.334C371.604 143.167 371.617 143.029 371.547 142.916C371.413 142.331 371.279 141.747 371.145 141.162C371.126 141.078 371.055 140.965 371.068 140.827C370.992 140.493 370.864 140.13 370.755 139.85C370.698 139.599 370.557 139.374 370.448 139.095C370.429 139.011 370.359 138.898 370.34 138.815C370.141 138.339 369.962 137.946 369.732 137.525C369.662 137.412 369.54 137.271 369.502 137.104C369.483 137.02 369.412 136.907 369.361 136.878C369.131 136.457 368.868 136.09 368.555 135.694C368.484 135.581 368.382 135.523 368.363 135.44C368.312 135.411 368.241 135.298 368.19 135.269C367.844 134.927 367.582 134.56 367.204 134.273C367.102 134.215 367.05 134.186 366.98 134.073C366.929 134.044 366.826 133.986 366.807 133.903C366.429 133.616 366.051 133.329 365.642 133.096C365.539 133.038 365.488 133.009 365.385 132.951L351.942 125.251C352.39 125.651 352.871 125.996 353.268 126.367Z" fill="#00C6DA"/>
<path d="M350.115 32.5002L338.961 39.3462L339.101 34.1135C339.194 31.4007 337.366 30.4368 335.048 31.8147C332.697 33.2472 330.737 36.5742 330.645 39.287L327.684 130.169C315.649 139.789 306.141 157.319 305.653 171.741C305.124 187.742 316.086 193.885 330.019 185.341C343.953 176.797 355.715 156.835 356.276 140.78C356.732 126.412 347.985 119.996 336.14 124.995L338.143 63.0412L354.279 53.1994C356.231 51.9778 357.87 49.1961 357.943 46.9816C358.016 44.767 356.476 43.894 354.524 45.1156L338.388 54.9574L338.633 47.4555L349.786 40.6095C351.738 39.3879 353.377 36.6062 353.45 34.3916C353.606 32.1516 352.086 31.3623 350.115 32.5002ZM347.871 145.982C347.546 156.641 339.704 169.949 330.42 175.599C321.135 181.249 313.868 177.201 314.193 166.542C314.517 155.884 322.359 142.576 331.643 136.926C340.928 131.276 348.195 135.324 347.871 145.982Z" fill="#00C6DA"/>
</g>
<g clip-path="url(#clip0_12102_23953)">
<path d="M110.354 132.429V255.937L134.167 269.616L155.996 158.597L110.354 132.429Z" fill="#5888D5"/>
<path d="M134.167 146.108V269.616C145.875 276.356 256.606 212.719 256.804 200.428V76.9196L134.167 146.108Z" fill="url(#paint1_linear_12102_23953)"/>
<path opacity="0.3" d="M256.804 76.9196L204.217 106.657V239.681C231.8 223.623 256.804 206.177 256.804 200.428V76.9196Z" fill="url(#paint2_linear_12102_23953)"/>
<path d="M255.812 75.5323L231.999 61.8532L110.354 132.429L134.167 146.108C139.922 149.478 169.887 135.601 198.859 119.345C231.404 100.908 262.361 79.299 255.812 75.5323Z" fill="url(#paint3_linear_12102_23953)"/>
<path d="M216.718 159.391C216.718 152.849 211.559 150.668 205.01 154.435C198.462 158.202 193.302 166.528 193.302 172.872C193.302 177.432 196.08 179.811 199.851 179.612V204.591L210.17 198.644V173.665C213.94 169.502 216.718 163.951 216.718 159.391Z" fill="#325CCF"/>
<path d="M205.01 154.435C201.041 156.814 197.469 160.779 195.287 165.14L210.17 173.665C214.139 169.502 216.718 163.951 216.718 159.391C216.718 152.849 211.36 150.668 205.01 154.435Z" fill="#4782DC"/>
<path opacity="0.3" d="M199.851 179.613L193.897 176.044C194.691 178.622 196.874 179.811 199.851 179.613Z" fill="#5265C1"/>
<path opacity="0.3" d="M199.851 204.591L210.17 198.644L199.851 192.696V204.591Z" fill="#5265C1"/>
<path opacity="0.6" d="M122.459 125.292L110.354 132.429L115.513 135.403H142.105C143.295 135.403 144.486 134.412 144.486 133.024V125.292H122.459Z" fill="#133FB7"/>
<path opacity="0.6" d="M231.801 72.7568H213.147L196.081 82.6692H231.801V72.7568Z" fill="#133FB7"/>
<path d="M226.641 4.16368C215.131 -2.37848 199.454 -0.990745 183.38 8.32687C155.4 24.5831 133.373 59.4747 133.373 87.824V130.645C134.365 137.386 151.034 136.791 151.034 130.645V87.6258C151.034 65.6203 169.886 36.2797 192.31 23.3937C202.629 17.4462 212.155 15.8603 217.909 19.2305C223.466 22.4024 224.656 29.5393 224.656 35.0903V77.9116C226.045 84.8503 241.921 83.8591 242.318 77.9116V35.0903C242.119 20.8165 236.563 9.91285 226.641 4.16368Z" fill="#DCE5F3"/>
<path opacity="0.6" d="M241.722 76.3258C240.531 73.5503 235.57 71.9644 231.006 72.7574C226.442 73.5503 223.465 76.3258 224.854 78.903C226.243 81.4802 231.006 83.2644 235.57 82.4714C240.333 81.8767 243.111 79.1013 241.722 76.3258Z" fill="#2CB4FF"/>
<path opacity="0.6" d="M150.637 129.059C149.447 126.284 144.486 124.698 139.921 125.491C135.159 126.284 132.381 129.059 133.77 131.636C134.96 134.412 139.921 135.998 144.486 135.205C149.05 134.61 151.828 131.636 150.637 129.059Z" fill="#2CB4FF"/>
</g>
<defs>
<linearGradient id="paint0_linear_12102_23953" x1="196.986" y1="175.328" x2="196.986" y2="319.715" gradientUnits="userSpaceOnUse">
<stop stop-color="#64A2FF"/>
<stop offset="1" stop-color="#3561A1" stop-opacity="0"/>
</linearGradient>
<linearGradient id="paint1_linear_12102_23953" x1="195.486" y1="76.9196" x2="195.486" y2="270.114" gradientUnits="userSpaceOnUse">
<stop stop-color="#28D2F0"/>
<stop offset="1" stop-color="#5D80DA" stop-opacity="0.88"/>
</linearGradient>
<linearGradient id="paint2_linear_12102_23953" x1="230.51" y1="76.9196" x2="230.51" y2="239.681" gradientUnits="userSpaceOnUse">
<stop stop-color="#28D2F0"/>
<stop offset="1" stop-color="#5D80DA" stop-opacity="0.88"/>
</linearGradient>
<linearGradient id="paint3_linear_12102_23953" x1="238.24" y1="69.0998" x2="124.793" y2="137.684" gradientUnits="userSpaceOnUse">
<stop stop-color="#598FDA"/>
<stop offset="1" stop-color="#505CBB"/>
</linearGradient>
<clipPath id="clip0_12102_23953">
<rect width="146.45" height="270.211" fill="white" transform="translate(110.354)"/>
</clipPath>
</defs>
</svg>
